<svg xmlns="http://www.w3.org/2000/svg" data-info="draw.ninja" data-name="iconv2" viewBox="0 0 560 180" style="top:0;left:0"><path fill="none" d="M0 0h560v180H0z"/><path fill="#576066" fill-rule="evenodd" data-name="curve" data-title="curve" data-sw="2" data-grad="0" data-group="0" data-edit="1" filter="none" d="M20.667 10h8.666v149.333h-8.666V10z" data-centerx="25" data-centery="84.667"/><path fill="#576066" fill-rule="evenodd" data-name="curve" data-title="curve" data-sw="2" data-grad="0" data-group="0" data-edit="1" filter="none" d="M34 80h53.333v9.333H34V80z" data-centerx="60.667" data-centery="84.667"/><path fill="#576066" fill-rule="evenodd" data-name="curve" data-title="curve" data-sw="2" data-grad="0" data-group="0" data-edit="1" filter="none" d="M82.001 10.667h8.666V160h-8.666V10.667z" data-centerx="86.337" data-centery="85.334"/><path fill="#576066" fill-rule="evenodd" data-name="curve" data-title="curve" data-sw="2" data-grad="0" data-group="0" data-edit="1" filter="none" d="M111.334 101.335v57.333h-9.333v-57.333h9.333z" data-centerx="106.651" data-centery="130.011"/><path fill="#576066" fill-rule="evenodd" data-name="curve" data-title="curve" data-sw="2" data-grad="0" data-group="0" data-edit="1" filter="none" d="M116.667 149.333h26.666v9.333h-26.666v-9.333z" data-centerx="129.998" data-centery="154.004"/><path fill="#576066" fill-rule="evenodd" data-name="curve" data-title="curve" data-sw="2" data-grad="0" data-group="0" data-edit="1" filter="none" d="M153.334 101.335v57.333h-9.333v-57.333h9.333z" data-centerx="148.65" data-centery="130.008"/><path fill="#576066" fill-rule="evenodd" data-name="curve" data-title="curve" data-sw="2" data-grad="0" data-group="0" data-edit="1" filter="none" d="M174.668 100.669v58.666h-9.333v-58.666h9.333z" data-centerx="169.981" data-centery="130.004"/><path fill="#576066" fill-rule="evenodd" data-name="curve" data-title="curve" data-sw="2" data-grad="0" data-group="0" data-edit="1" filter="none" d="M187.4 111.334h18.666v9.333H187.4v-9.333z" data-centerx="196.719" data-centery="116.001"/><path fill="#576066" fill-rule="evenodd" data-name="curve" data-title="curve" data-sw="2" data-grad="0" data-group="0" data-edit="1" filter="none" d="M230.001 106.669v53.333h-9.333v-53.333h9.333z" data-centerx="225.305" data-centery="133.346"/><path fill="#576066" fill-rule="evenodd" data-name="curve" data-title="curve" data-sw="2" data-grad="0" data-group="0" data-edit="1" filter="none" d="M221.333 150.667h53.333V160h-53.333v-9.333z" data-centerx="247.977" data-centery="155.332"/><path fill="#576066" fill-rule="evenodd" data-name="curve" data-title="curve" data-sw="2" data-grad="0" data-group="0" data-edit="1" filter="none" d="M274.667 103.336v56h-9.333v-56h9.333z" data-centerx="269.97" data-centery="131.341"/><path fill="#576066" fill-rule="evenodd" data-name="curve" data-title="curve" data-sw="2" data-grad="0" data-group="0" data-edit="1" filter="none" d="M220.666 103.334h53.333v9.333h-53.333v-9.333z" data-centerx="247.304" data-centery="107.993"/><path fill="#576066" fill-rule="evenodd" data-name="curve" data-title="curve" data-sw="2" data-grad="0" data-group="0" data-edit="1" filter="none" d="M287.333 121.333h44.666v9.333h-44.666v-9.333z" data-centerx="309.655" data-centery="126.005"/><path fill="#576066" fill-rule="evenodd" data-name="curve" data-title="curve" data-sw="2" data-grad="0" data-group="0" data-edit="1" filter="none" d="M361.335 107.335v53.333h-9.333v-53.333h9.333z" data-centerx="356.634" data-centery="134.013"/><path fill="#576066" fill-rule="evenodd" data-name="curve" data-title="curve" data-sw="2" data-grad="0" data-group="0" data-edit="1" filter="none" d="M352.667 151.333H406v9.333h-53.333v-9.333z" data-centerx="379.306" data-centery="155.999"/><path fill="#576066" fill-rule="evenodd" data-name="curve" data-title="curve" data-sw="2" data-grad="0" data-group="0" data-edit="1" filter="none" d="M352 104h53.333v9.333H352V104z" data-centerx="378.633" data-centery="108.66"/><path fill="#576066" fill-rule="evenodd" data-name="curve" data-title="curve" data-sw="2" data-grad="0" data-group="0" data-edit="1" filter="none" d="M418.667 12.667h8.666V162h-8.666V12.667z" data-centerx="422.981" data-centery="87.332"/><path fill="#576066" fill-rule="evenodd" data-name="curve" data-title="curve" data-sw="2" data-grad="0" data-group="0" data-edit="1" filter="none" d="M431.333 91.334h39.333v9.333h-39.333v-9.333z" data-centerx="450.985" data-centery="96.003"/><path fill="#576066" fill-rule="evenodd" data-name="curve" data-title="curve" data-sw="2" data-grad="0" data-group="0" data-edit="1" filter="none" d="M464.668 91.333h8.666V162h-8.666V91.333z" data-centerx="468.978" data-centery="126.667"/><path fill="#576066" fill-rule="evenodd" data-name="curve" data-title="curve" data-sw="2" data-grad="0" data-group="0" data-edit="1" filter="none" d="M495.334 123.335v36.666h-9.333v-36.666h9.333z" data-centerx="490.618" data-centery="141.677"/><path fill="#576066" fill-rule="evenodd" data-name="curve" data-title="curve" data-sw="2" data-grad="0" data-group="0" data-edit="1" filter="none" d="M486.666 150.666h53.333v9.333h-53.333v-9.333z" data-centerx="513.29" data-centery="155.333"/><path fill="#576066" fill-rule="evenodd" data-name="curve" data-title="curve" data-sw="2" data-grad="0" data-group="0" data-edit="1" filter="none" d="M540 97.335v61.333h-9.333V97.335H540z" data-centerx="535.283" data-centery="128.009"/><path fill="#576066" fill-rule="evenodd" data-name="curve" data-title="curve" data-sw="2" data-grad="0" data-group="0" data-edit="1" filter="none" d="M486.666 122.666h53.333v9.333h-53.333v-9.333z" data-centerx="513.284" data-centery="127.335"/><path fill="#576066" fill-rule="evenodd" data-name="curve" data-title="curve" data-sw="2" data-grad="0" data-group="0" data-edit="1" filter="none" d="M485.999 97.333h53.333v9.333h-53.333v-9.333z" data-centerx="512.612" data-centery="101.993"/><path fill="#576066" fill-rule="evenodd" data-name="curve" data-title="curve" data-sw="2" data-grad="0" data-group="0" data-edit="1" filter="none" d="M318.393 104.281l22.789 20.519-6.245 6.936-22.789-20.519 6.245-6.936z" data-centerx="326.644" data-centery="118.012"/><path fill="#576066" fill-rule="evenodd" data-name="curve" data-title="curve" data-sw="2" data-grad="0" data-group="0" data-edit="1" filter="none" d="M312.933 142.269l20.52-22.789 6.935 6.245-20.518 22.789-6.937-6.245z" data-centerx="326.641" data-centery="134.013"/><path fill="#576066" fill-rule="evenodd" data-name="curve" data-title="curve" data-sw="2" data-grad="0" data-group="0" data-edit="1" filter="none" d="M176.066 120.675c0-5.569 4.568-9.325 10.275-9.325 5.705 0 14.992 3.456 14.992 9.025-2.108-8.031-1.757-7.475-12.583.225-5.606.3-6.66-.056-12.684.075z" data-centerx="188.7" data-centery="116.04"/><path fill="#576066" fill-rule="evenodd" data-name="curve" data-title="curve" data-sw="2" data-grad="0" data-group="0" data-edit="1" filter="none" d="M20 165h520v6H20v-6z" data-centerx="280" data-centery="168"/><path fill="none" data-name="curve" data-title="curve" data-sw="2" data-grad="0" data-group="0" data-edit="1" filter="none" d="M190 50l20 20" data-centerx="200" data-centery="60"/><path fill="none" data-name="curve" data-title="curve" data-sw="2" data-grad="0" data-group="0" data-edit="1" filter="none" d="M160 40c1.6-2.2 2.8 2.8 3.8 6.1s6.2 7.5 8.8 9.6c2.6 2.1 3.4 2.1 3.4 2.1" data-centerx="168" data-centery="48.629"/><path fill="none" data-name="curve" data-title="curve" data-sw="2" data-grad="0" data-group="0" data-edit="1" filter="none" d="M200 40v8.5c0 3.3 2.2 8.7 3.3 11.4 1.1 2.7 3.9 4.3 3.9 4.3" data-centerx="203.6" data-centery="52.1"/><path fill="none" data-name="curve" data-title="curve" data-sw="2" data-grad="0" data-group="0" data-edit="1" filter="none" d="M130 50c0 1.8 6 .4 9-.3s8-1.9 11.9-2.9c3.9-1 9.1-1.6 11.7-1.9l2.6-.3" data-centerx="147.6" data-centery="47.741"/></svg>